<?xml version="1.0" encoding="UTF-8" standalone="no"?>
<svg width="17px" height="17px" viewBox="0 0 17 17" version="1.1" xmlns="http://www.w3.org/2000/svg" xmlns:xlink="http://www.w3.org/1999/xlink">
    <!-- Generator: Sketch 47.1 (45422) - http://www.bohemiancoding.com/sketch -->
    <title>Help Icon</title>
    <desc>Created with Sketch.</desc>
    <defs></defs>
    <g id="Design" stroke="none" stroke-width="1" fill="none" fill-rule="evenodd">
        <g id="Desktop-HD" transform="translate(-736.000000, -540.000000)" fill-rule="nonzero" fill="#9B9B9B">
            <g id="Fields-Block" transform="translate(94.000000, 364.000000)">
                <g id="Field" transform="translate(41.000000, 174.000000)">
                    <g id="Help" transform="translate(567.000000, 1.000000)">
                        <path d="M42.5,1 C37.8129583,1 34,4.81295833 34,9.5 C34,14.1870417 37.8129583,18 42.5,18 C47.1870417,18 51,14.1870417 51,9.5 C51,4.81295833 47.1870417,1 42.5,1 Z M42.5,14.6 C42.0308,14.6 41.65,14.2192 41.65,13.75 C41.65,13.2808 42.0308,12.9 42.5,12.9 C42.9692,12.9 43.35,13.2808 43.35,13.75 C43.35,14.2192 42.9692,14.6 42.5,14.6 Z M43.086513,9.75024 L43.086513,11.2 L41.7775216,11.2 L41.7775216,9.16 C41.7775216,8.78464 42.0700812,8.48 42.4320173,8.48 C43.1290552,8.48 43.7410086,7.8442 43.7410086,7.12 C43.7410086,6.3958 43.1290552,5.76 42.4320173,5.76 C41.9005668,5.76 41.3900602,6.21696 41.2041834,6.65896 C41.0595398,7.00236 40.6773144,7.1608 40.3428671,7.00984 C40.0116922,6.85956 39.8598492,6.45836 40.0051473,6.11428 C40.4227155,5.12148 41.4430743,4.4 42.4320173,4.4 C43.8509639,4.4 45.05,5.64576 45.05,7.12 C45.05,8.36032 44.2011191,9.43948 43.086513,9.75024 Z" id="Help-Icon"></path>
                    </g>
                </g>
            </g>
        </g>
    </g>
</svg>