<?xml version="1.0" encoding="UTF-8" standalone="no"?>
<svg width="37px" height="37px" viewBox="0 0 37 37" version="1.1" xmlns="http://www.w3.org/2000/svg" xmlns:xlink="http://www.w3.org/1999/xlink">
    <!-- Generator: Sketch 47.1 (45422) - http://www.bohemiancoding.com/sketch -->
    <title>Group 3</title>
    <desc>Created with Sketch.</desc>
    <defs></defs>
    <g id="Design" stroke="none" stroke-width="1" fill="none" fill-rule="evenodd">
        <g id="Desktop-HD" transform="translate(-1057.000000, -93.000000)">
            <g id="Group-3" transform="translate(1057.000000, 93.000000)">
                <rect id="Rectangle-9" fill="#D8D8D8" x="0" y="0" width="37" height="37"></rect>
                <g id="users-24px-outline_man-glasses" transform="translate(8.000000, 8.000000)" stroke="#444444" stroke-width="2">
                    <path d="M10,17 L12,17" id="Shape" stroke-linecap="square"></path>
                    <path d="M19.572,13.946 C18.432,18.104 15.039,22 11,22 L11,22 C6.978,22 3.582,18.085 2.428,13.946" id="Shape"></path>
                    <path d="M2.514,6 C3.754,2.512 7.087,0 11,0 L11,0 C14.92,0 18.253,2.503 19.488,6" id="Shape"></path>
                    <path d="M5,14 L3,14 C1.343,14 0,12.657 0,11 L0,8 C0,6.895 0.895,6 2,6 L7,6 C8.105,6 9,6.895 9,8 L9,10 C9,12.209 7.209,14 5,14 Z" id="Shape" stroke-linecap="square"></path>
                    <path d="M17,14 L19,14 C20.657,14 22,12.657 22,11 L22,8 C22,6.895 21.105,6 20,6 L15,6 C13.895,6 13,6.895 13,8 L13,10 C13,12.209 14.791,14 17,14 Z" id="Shape" stroke-linecap="square"></path>
                    <path d="M9,8 L13,8" id="Shape" stroke-linecap="square"></path>
                </g>
            </g>
        </g>
    </g>
</svg>