<?xml version="1.0" encoding="UTF-8" standalone="no"?>
<svg width="445px" height="234px" viewBox="0 0 445 234" version="1.1" xmlns="http://www.w3.org/2000/svg" xmlns:xlink="http://www.w3.org/1999/xlink">
    <!-- Generator: Sketch 47.1 (45422) - http://www.bohemiancoding.com/sketch -->
    <title>Group 8</title>
    <desc>Created with Sketch.</desc>
    <defs></defs>
    <g id="Design-2" stroke="none" stroke-width="1" fill="none" fill-rule="evenodd">
        <g id="Desktop-HD-Copy-13" transform="translate(-746.000000, -2929.000000)">
            <g id="Group-9" transform="translate(251.000000, 2929.000000)">
                <g id="Group-12">
                    <g id="Group-8">
                        <g id="Group-14" transform="translate(495.000000, -109.000000)">
                            <path d="M71.5,183 C32.175,183 0,215.175 0,254.5 C0,293.825 32.175,326 71.5,326 C110.825,326 143,293.825 143,254.5 C143,215.175 110.825,183 71.5,183 Z M100.1,240.2 C100.1,240.795833 100.1,241.391667 100.1,241.9875 C100.1,261.65 85.2041667,283.695833 58.3916667,283.695833 C50.05,283.695833 42.3041667,281.3125 35.75,277.141667 C36.9416667,277.141667 38.1333333,277.141667 39.325,277.141667 C46.475,277.141667 52.4333333,274.758333 57.7958333,270.5875 C51.2416667,270.5875 45.8791667,266.416667 44.0916667,260.458333 C45.2833333,260.458333 45.8791667,260.458333 47.0708333,260.458333 C48.2625,260.458333 49.4541667,260.458333 50.6458333,259.8625 C44.0916667,258.670833 38.7291667,252.7125 38.7291667,245.5625 C38.7291667,245.5625 38.7291667,245.5625 38.7291667,245.5625 C40.5166667,246.754167 42.9,247.35 45.2833333,247.35 C41.1125,244.966667 38.7291667,240.2 38.7291667,235.433333 C38.7291667,232.454167 39.325,230.070833 40.5166667,228.283333 C47.6666667,237.220833 58.3916667,243.179167 70.9041667,243.775 C70.9041667,242.583333 70.3083333,241.391667 70.3083333,240.2 C70.3083333,231.858333 76.8625,225.304167 85.2041667,225.304167 C89.375,225.304167 92.95,227.091667 95.9291667,230.070833 C99.5041667,229.475 102.483333,228.283333 105.4625,226.495833 C104.270833,230.070833 101.8875,233.05 98.9083333,234.8375 C101.8875,234.241667 104.866667,233.645833 107.25,232.454167 C105.4625,235.433333 103.079167,237.816667 100.1,240.2 Z" id="Shape" fill="#E3E9EB" fill-rule="nonzero"></path>
                            <path d="M384.5,279 C345.175,279 313,311.175 313,350.5 C313,389.825 345.175,422 384.5,422 C423.825,422 456,389.825 456,350.5 C456,311.175 423.825,279 384.5,279 Z M370.795833,383.270833 C352.325,383.270833 336.833333,368.375 336.833333,349.308333 C336.833333,330.241667 351.729167,315.345833 370.795833,315.345833 C379.733333,315.345833 387.479167,318.920833 393.4375,324.283333 L384.5,333.220833 C382.116667,330.8375 377.35,327.858333 370.795833,327.858333 C359.475,327.858333 349.941667,337.391667 349.941667,349.308333 C349.941667,361.225 359.475,370.758333 370.795833,370.758333 C383.904167,370.758333 388.670833,361.820833 389.8625,356.458333 L372.583333,356.458333 L372.583333,344.541667 L402.375,344.541667 C405.95,363.608333 394.033333,383.270833 370.795833,383.270833 Z M432.166667,350.5 L426.208333,350.5 L426.208333,356.458333 L420.25,356.458333 L420.25,350.5 L414.291667,350.5 L414.291667,344.541667 L420.25,344.541667 L420.25,338.583333 L426.208333,338.583333 L426.208333,344.541667 L432.166667,344.541667 L432.166667,350.5 Z" id="Shape" fill="#E3E9EB" fill-rule="nonzero"></path>
                            <path d="M498.5,161 C459.175,161 427,193.175 427,232.5 C427,271.825 459.175,304 498.5,304 C537.825,304 570,271.825 570,232.5 C570,193.175 537.825,161 498.5,161 Z M527.1,218.2 C527.1,218.795833 527.1,219.391667 527.1,219.9875 C527.1,239.65 512.204167,261.695833 485.391667,261.695833 C477.05,261.695833 469.304167,259.3125 462.75,255.141667 C463.941667,255.141667 465.133333,255.141667 466.325,255.141667 C473.475,255.141667 479.433333,252.758333 484.795833,248.5875 C478.241667,248.5875 472.879167,244.416667 471.091667,238.458333 C472.283333,238.458333 472.879167,238.458333 474.070833,238.458333 C475.2625,238.458333 476.454167,238.458333 477.645833,237.8625 C471.091667,236.670833 465.729167,230.7125 465.729167,223.5625 C465.729167,223.5625 465.729167,223.5625 465.729167,223.5625 C467.516667,224.754167 469.9,225.35 472.283333,225.35 C468.1125,222.966667 465.729167,218.2 465.729167,213.433333 C465.729167,210.454167 466.325,208.070833 467.516667,206.283333 C474.666667,215.220833 485.391667,221.179167 497.904167,221.775 C497.904167,220.583333 497.308333,219.391667 497.308333,218.2 C497.308333,209.858333 503.8625,203.304167 512.204167,203.304167 C516.375,203.304167 519.95,205.091667 522.929167,208.070833 C526.504167,207.475 529.483333,206.283333 532.4625,204.495833 C531.270833,208.070833 528.8875,211.05 525.908333,212.8375 C528.8875,212.241667 531.866667,211.645833 534.25,210.454167 C532.4625,213.433333 530.079167,215.816667 527.1,218.2 Z" id="Shape" fill="#E3E9EB" fill-rule="nonzero"></path>
                            <path d="M458.5,0 C419.175,0 387,32.175 387,71.5 C387,110.825 419.175,143 458.5,143 C497.825,143 530,110.825 530,71.5 C530,32.175 497.825,0 458.5,0 Z M487.1,57.2 C487.1,57.7958333 487.1,58.3916667 487.1,58.9875 C487.1,78.65 472.204167,100.695833 445.391667,100.695833 C437.05,100.695833 429.304167,98.3125 422.75,94.1416667 C423.941667,94.1416667 425.133333,94.1416667 426.325,94.1416667 C433.475,94.1416667 439.433333,91.7583333 444.795833,87.5875 C438.241667,87.5875 432.879167,83.4166667 431.091667,77.4583333 C432.283333,77.4583333 432.879167,77.4583333 434.070833,77.4583333 C435.2625,77.4583333 436.454167,77.4583333 437.645833,76.8625 C431.091667,75.6708333 425.729167,69.7125 425.729167,62.5625 C425.729167,62.5625 425.729167,62.5625 425.729167,62.5625 C427.516667,63.7541667 429.9,64.35 432.283333,64.35 C428.1125,61.9666667 425.729167,57.2 425.729167,52.4333333 C425.729167,49.4541667 426.325,47.0708333 427.516667,45.2833333 C434.666667,54.2208333 445.391667,60.1791667 457.904167,60.775 C457.904167,59.5833333 457.308333,58.3916667 457.308333,57.2 C457.308333,48.8583333 463.8625,42.3041667 472.204167,42.3041667 C476.375,42.3041667 479.95,44.0916667 482.929167,47.0708333 C486.504167,46.475 489.483333,45.2833333 492.4625,43.4958333 C491.270833,47.0708333 488.8875,50.05 485.908333,51.8375 C488.8875,51.2416667 491.866667,50.6458333 494.25,49.4541667 C492.4625,52.4333333 490.079167,54.8166667 487.1,57.2 Z" id="Shape" fill="#E3E9EB" fill-rule="nonzero"></path>
                            <path d="M346.5,118 C307.175,118 275,150.175 275,189.5 C275,228.825 307.175,261 346.5,261 C385.825,261 418,228.825 418,189.5 C418,150.175 385.825,118 346.5,118 Z" id="Shape" fill="#E3E9EB" fill-rule="nonzero"></path>
                            <g id="ui-24px-outline-2_link-72" transform="translate(317.000000, 160.000000)" stroke="#FFFFFF" stroke-width="6" stroke-linecap="round">
                                <path d="M34.4651163,25 L34.4651163,25 C40.5116279,30.9649123 40.5116279,40.2105263 34.4651163,46.1754386 L26,54.5263158 C19.9534884,60.4912281 10.5813953,60.4912281 4.53488372,54.5263158 L4.53488372,54.5263158 C-1.51162791,48.5614035 -1.51162791,39.3157895 4.53488372,33.3508772 L12.0930233,26.1929825" id="Shape"></path>
                                <path d="M24.5348837,34 L24.5348837,34 C18.4883721,28.0350877 18.4883721,18.7894737 24.5348837,12.8245614 L33,4.47368421 C39.0465116,-1.49122807 48.4186047,-1.49122807 54.4651163,4.47368421 L54.4651163,4.47368421 C60.5116279,10.4385965 60.5116279,19.6842105 54.4651163,25.6491228 L46.9069767,32.8070175" id="Shape"></path>
                            </g>
                            <path d="M189.5,70 C150.175,70 118,102.175 118,141.5 C118,180.825 150.175,213 189.5,213 C228.825,213 261,180.825 261,141.5 C261,102.175 228.825,70 189.5,70 Z M207.970833,117.666667 L201.416667,117.666667 C196.054167,117.666667 194.8625,120.05 194.8625,123.625 L194.8625,131.966667 L207.375,131.966667 L205.5875,144.479167 L194.8625,144.479167 L194.8625,177.25 L181.754167,177.25 L181.754167,144.479167 L171.029167,144.479167 L171.029167,131.966667 L181.754167,131.966667 L181.754167,122.433333 C181.754167,111.708333 188.308333,105.75 198.4375,105.75 C203.204167,105.75 207.375,106.345833 207.970833,106.345833 L207.970833,117.666667 Z" id="Shape" fill="#E3E9EB" fill-rule="nonzero"></path>
                            <path d="M225.5,229 C186.175,229 154,261.175 154,300.5 C154,339.825 186.175,372 225.5,372 C264.825,372 297,339.825 297,300.5 C297,261.175 264.825,229 225.5,229 Z M205.8375,336.25 L190.941667,336.25 L190.941667,288.583333 L205.8375,288.583333 L205.8375,336.25 Z M198.091667,282.029167 C193.325,282.029167 189.75,277.858333 189.75,273.6875 C189.75,268.920833 193.325,264.75 198.091667,264.75 C202.858333,264.75 206.433333,268.325 206.433333,273.091667 C207.029167,277.858333 202.858333,282.029167 198.091667,282.029167 Z M261.25,336.25 L246.354167,336.25 L246.354167,313.0125 C246.354167,307.65 246.354167,300.5 238.608333,300.5 C230.8625,300.5 229.670833,306.458333 229.670833,313.0125 L229.670833,336.845833 L214.775,336.845833 L214.775,289.179167 L229.075,289.179167 L229.075,295.733333 L229.075,295.733333 C230.8625,292.158333 235.629167,287.9875 243.375,287.9875 C258.270833,287.9875 261.25,298.116667 261.25,310.629167 L261.25,336.25 Z" id="Shape" fill="#E3E9EB" fill-rule="nonzero"></path>
                        </g>
                    </g>
                </g>
            </g>
        </g>
    </g>
</svg>