<?xml version="1.0" encoding="UTF-8" standalone="no"?>
<svg width="220px" height="32px" viewBox="0 0 220 32" version="1.1" xmlns="http://www.w3.org/2000/svg" xmlns:xlink="http://www.w3.org/1999/xlink">
    <!-- Generator: Sketch 47.1 (45422) - http://www.bohemiancoding.com/sketch -->
    <title>MetaShift LOGO</title>
    <desc>Created with Sketch.</desc>
    <defs></defs>
    <g id="Design-2" stroke="none" stroke-width="1" fill="none" fill-rule="evenodd">
        <g id="Desktop-HD-Copy-13" transform="translate(-250.000000, -124.000000)">
            <g id="MetaShift-LOGO" transform="translate(250.000000, 124.000000)">
                <g id="Page-1" transform="translate(44.000000, 0.000000)">
                    <polygon id="Fill-1" fill="#FFFFFF" points="23.6020889 3.25812459 14.1116691 17.4084197 4.62070617 3.25812459 0.000162962963 3.25812459 0.000162962963 31.3976656 4.99552099 31.3976656 4.99552099 12.5045508 14.1116691 25.8899934 23.2278173 12.5045508 23.2278173 31.3976656 28.2226321 31.3976656 28.2226321 3.25812459"></polygon>
                    <path d="M37.2555062,20.1014557 L47.0376296,20.1014557 C46.9539753,18.4531934 45.3716049,16.2425705 42.0840988,16.2425705 C38.8786173,16.2425705 37.4217284,18.4133246 37.2555062,20.1014557 Z M42.0840988,11.8606689 C47.4950123,11.8606689 52.0324444,15.9209967 52.0324444,21.7901115 C52.0324444,22.1515541 52.0324444,22.8754885 51.9906173,23.5988984 L37.2555062,23.5988984 C37.6297778,25.2875541 39.6689877,27.4577836 42.791358,27.4577836 C46.2461728,27.4577836 48.2022716,25.5288656 48.2022716,25.5288656 L50.6999506,29.1464393 C50.6999506,29.1464393 47.5786667,31.8800787 42.791358,31.8800787 C36.797037,31.8800787 32.1764938,27.4577836 32.1764938,21.8703738 C32.1764938,16.2829639 36.3814815,11.8606689 42.0840988,11.8606689 Z" id="Fill-2" fill="#FFFFFF"></path>
                    <path d="M65.558642,27.3775738 C64.2272346,27.3775738 62.9783951,26.6940328 62.9783951,24.3627541 L62.9783951,16.6843279 L68.9303457,16.6843279 L68.9303457,12.3433443 L62.9783951,12.3433443 L62.9783951,6.67514754 L57.9835802,6.67514754 L57.9835802,12.3433443 L54.1121235,12.3433443 L54.1121235,16.6843279 L57.9835802,16.6843279 L57.9835802,25.1265574 C57.9835802,29.1863607 60.8968148,31.8801311 64.7269877,31.8801311 C67.5989383,31.8801311 69.4719259,30.6337049 69.4719259,30.6337049 L67.6402222,26.6940328 C67.6402222,26.6940328 66.6830864,27.3775738 65.558642,27.3775738" id="Fill-4" fill="#FFFFFF"></path>
                    <path d="M84.497763,25.6491016 C84.497763,25.6491016 82.9159358,27.8602492 79.9185037,27.8602492 C78.3779605,27.8602492 76.3387506,27.4180197 76.3387506,25.4077902 C76.3387506,23.3576918 78.462158,22.7145443 80.002158,22.7145443 C82.7073432,22.7145443 84.497763,23.6792656 84.497763,23.6792656 L84.497763,25.6491016 Z M80.5013679,11.8607738 C76.3805778,11.8607738 72.7171704,13.5892984 72.7171704,13.5892984 L74.3408247,17.5693639 C74.3408247,17.5693639 77.3795407,16.1618885 80.2520346,16.1618885 C81.9995407,16.1618885 84.497763,16.9660852 84.497763,19.4584131 L84.497763,20.5437902 C84.497763,20.5437902 82.6242321,19.1772328 79.0031951,19.1772328 C74.7150963,19.1772328 71.2602815,21.8300852 71.2602815,25.4880525 C71.2602815,29.5483803 74.6738123,31.8801836 78.3779605,31.8801836 C82.8322815,31.8801836 84.8720346,28.9854951 84.8720346,28.9854951 L84.8720346,31.3975607 L89.4925778,31.3975607 L89.4925778,18.9757902 C89.4925778,14.6348066 86.162158,11.8607738 80.5013679,11.8607738 L80.5013679,11.8607738 Z" id="Fill-6" fill="#FFFFFF"></path>
                    <path d="M105.471314,15.3980852 C101.475462,13.9512656 99.1858321,13.1874623 99.1858321,10.7350033 C99.1858321,8.8459541 101.141931,7.35874098 103.63961,7.35874098 C107.26119,7.35874098 109.675215,10.5346098 109.675215,10.5346098 L113.130573,7.23756066 C113.130573,7.23756066 109.716499,2.77539672 103.63961,2.77539672 C97.7702272,2.77539672 94.1068198,6.7554623 94.1068198,10.7350033 C94.1068198,15.9609705 98.9359556,18.2119869 103.222968,19.6593311 C106.678326,20.8254951 108.551314,21.6695607 108.551314,24.0412328 C108.551314,26.3326426 105.970523,27.2973639 103.472844,27.2973639 C99.0603506,27.2973639 96.5632148,23.0765115 96.5632148,23.0765115 L92.8166963,26.1317246 C92.8166963,26.1317246 96.1884,31.8801836 103.472844,31.8801836 C108.967956,31.8801836 113.629783,29.1465443 113.629783,24.0412328 C113.629783,18.9359213 109.925091,17.0059541 105.471314,15.3980852" id="Fill-9" fill="#FFFFFF"></path>
                    <path d="M127.3668,11.8606689 C123.53717,11.8606689 121.788578,14.6347016 121.788578,14.6347016 L121.788578,1.00742295 L116.793763,1.00742295 L116.793763,31.3974557 L121.788578,31.3974557 L121.788578,18.8555541 C121.788578,18.8555541 123.121072,16.3632262 125.701862,16.3632262 C127.86601,16.3632262 129.614602,17.5288656 129.614602,20.2625049 L129.614602,31.3974557 L134.609417,31.3974557 L134.609417,19.0564721 C134.609417,14.4736525 131.19643,11.8606689 127.3668,11.8606689" id="Fill-12" fill="#FFFFFF"></path>
                    <path d="M141.480696,3.01691803 C139.649536,3.01691803 138.192104,4.42386885 138.192104,6.19278689 C138.192104,7.96170492 139.649536,9.36813115 141.480696,9.36813115 C143.3124,9.36813115 144.769289,7.96170492 144.769289,6.19278689 C144.769289,4.42386885 143.3124,3.01691803 141.480696,3.01691803" id="Fill-14" fill="#FFFFFF"></path>
                    <polygon id="Clip-17" points="0 31.8801311 175.791951 31.8801311 175.791951 0.524852459 0 0.524852459"></polygon>
                    <polygon id="Fill-16" fill="#FFFFFF" points="138.982963 31.3975082 143.977778 31.3975082 143.977778 12.3433443 138.982963 12.3433443"></polygon>
                    <path d="M169.780681,12.3432393 L169.780681,6.42323934 L164.785867,6.42323934 L164.785867,12.3432393 L156.840336,12.3432393 L156.840336,7.92094426 C156.840336,5.54979672 158.463447,5.02678033 159.421126,5.02678033 C160.669965,5.02678033 161.418509,5.58966557 161.418509,5.58966557 L163.29204,1.5298623 C163.29204,1.5298623 161.668385,0.524747541 158.921373,0.524747541 C155.715891,0.524747541 151.844978,2.37392787 151.844978,7.67963279 L151.844978,12.3432393 L147.932237,12.3432393 L147.932237,16.684223 L151.844978,16.684223 L151.844978,31.3974033 L156.840336,31.3974033 L156.840336,16.684223 L164.785867,16.684223 L164.785867,31.3974033 L169.780681,31.3974033 L169.780681,16.684223 L175.791842,16.684223 L175.791842,12.3432393 L169.780681,12.3432393 Z" id="Fill-18" fill="#FFFFFF"></path>
                </g>
                <path d="M17.5300612,11.5986605 L14.7622137,14.2772225 C14.5599916,14.4734446 14.2945075,14.571294 14.0284827,14.571294 C13.7629986,14.571294 13.4969738,14.4734446 13.2947517,14.2772225 C12.8892261,13.8847784 12.8892261,13.2490189 13.2947517,12.8565747 L15.3283275,10.8885982 L13.2947517,8.92009837 C12.8892261,8.52765423 12.8892261,7.89189472 13.2947517,7.49945058 C13.6997366,7.10752969 14.3572288,7.10752969 14.7622137,7.49945058 L17.5300612,10.1780127 C17.9355868,10.5704568 17.9355868,11.2062163 17.5300612,11.5986605 L17.5300612,11.5986605 Z M9.30654248,12.8565747 C9.71206809,13.2490189 9.71206809,13.8847784 9.30654248,14.2772225 C9.10377967,14.4734446 8.83829557,14.571294 8.57281147,14.571294 C8.30678667,14.571294 8.04130257,14.4734446 7.83853976,14.2772225 L5.07069227,11.5986605 C4.66516666,11.2062163 4.66516666,10.5704568 5.07069227,10.1780127 L7.83853976,7.49945058 C8.24352467,7.10752969 8.90155757,7.10752969 9.30654248,7.49945058 C9.71206809,7.89189472 9.71206809,8.52765423 9.30654248,8.92009837 L7.272426,10.8885982 L9.30654248,12.8565747 Z M24.7727487,2 L6.22779202,2 C2.80245234,2 0,4.71205065 0,8.02637225 L0,25.9731045 C0,29.2879493 2.80245234,32 6.22779202,32 L24.7727487,32 C28.1975477,32 31,29.2879493 31,25.9731045 L31,8.02637225 C31,4.71205065 28.1975477,2 24.7727487,2 L24.7727487,2 Z" id="Fill-1" fill="#F7476E"></path>
            </g>
        </g>
    </g>
</svg>